<svg width="192" height="192" viewBox="0 0 192 192" fill="none" xmlns="http://www.w3.org/2000/svg">
  <rect width="192" height="192" rx="40" fill="#003262"/>
  <rect x="18" y="18" width="156" height="156" rx="30" fill="#FDB515"/>
  <rect x="30" y="30" width="132" height="132" rx="24" fill="#003262"/>
  <path d="M96 47C113.6 47 128 61.4 128 79C128 96.7 113.6 111 96 111C78.3 111 64 96.7 64 79C64 61.4 78.3 47 96 47Z" fill="#FDB515"/>
  <path d="M60 128C60 111.4 76.1 100 96 100C115.9 100 132 111.4 132 128V140H60V128Z" fill="#FDB515"/>
  <path d="M75 77C75 65.4 84.4 56 96 56C107.6 56 117 65.4 117 77H75Z" fill="#003262"/>
  <path d="M76 80H116C116 91 107 100 96 100C85 100 76 91 76 80Z" fill="#003262"/>
  <path d="M54 51L66 39L78 51L66 63L54 51Z" fill="#FDB515"/>
  <path d="M114 51L126 39L138 51L126 63L114 51Z" fill="#FDB515"/>
  <text x="96" y="159" text-anchor="middle" font-family="Arial, Helvetica, sans-serif" font-size="28" font-weight="800" fill="#FDB515">BG</text>
</svg>
